<svg xmlns="http://www.w3.org/2000/svg" width="163.839" height="163.839" fill-rule="evenodd" clip-rule="evenodd" image-rendering="optimizeQuality" shape-rendering="geometricPrecision" text-rendering="geometricPrecision" viewBox="0 0 4335 4335"><defs><linearGradient id="a" x1="2167.3" x2="2167.3" y1="753.16" y2="3394.39" gradientUnits="userSpaceOnUse"><stop offset="0" stop-color="#AC2F2B"/><stop offset="1" stop-color="#8C2421"/></linearGradient><linearGradient id="c" x1="478.96" x2="1100.63" y1="1455.48" y2="1455.48" gradientUnits="userSpaceOnUse"><stop offset="0" stop-color="#B2B3B3"/><stop offset="1" stop-color="#D9DADA"/></linearGradient><linearGradient id="b" x1="3729.08" x2="605.52" y1="512" y2="3635.56" gradientUnits="userSpaceOnUse"><stop offset="0" stop-color="#8C2421"/><stop offset="1" stop-color="#A42C28"/></linearGradient></defs><rect width="4149" height="2641" x="93" y="753" fill="url(#a)" rx="197" ry="197"/><path fill="url(#b)" d="M290 753h3755c108 0 197 89 197 197v2247c0 108-89 197-197 197h-9c-62-1255-1756-2260-3837-2260-36 0-71 0-107 1V950c0-108 89-197 197-197z"/><path fill="#fefefe" fill-rule="nonzero" d="M2072 1114h70c32 0 56 5 70 14s22 24 22 45c0 14-4 25-11 34s-17 15-31 17v2c16 3 29 9 36 18 8 9 12 22 12 37 0 21-7 38-22 49-15 12-35 18-61 18h-85v-235zm38 97h37c16 0 28-3 35-8s11-14 11-26c0-11-4-19-12-24s-21-7-38-7h-33v65zm0 31v74h41c16 0 28-3 36-9s12-16 12-29c0-12-4-21-13-27-8-6-21-9-38-9h-39zm285 106l-8-25h-1c-9 11-17 18-26 22s-20 6-33 6c-17 0-31-5-41-14s-15-23-15-40c0-18 7-32 20-41 14-9 34-14 62-15l31-1v-9c0-11-3-20-8-25-5-6-14-8-25-8-9 0-18 1-26 4l-24 9-12-27c10-5 20-9 32-11 11-3 22-4 32-4 23 0 40 5 51 15 12 10 17 25 17 46v120h-27zm-56-26c14 0 25-4 33-12s12-18 12-32v-15l-23 1c-18 1-31 4-39 9s-12 13-12 24c0 8 2 14 7 18s12 7 21 7zm292 26h-38v-109c0-14-3-24-8-31-6-7-14-10-26-10-16 0-28 5-35 14s-11 25-11 47v88h-38v-177h30l5 23h2c5-8 13-15 23-20s21-7 33-7c43 0 64 22 64 65v116zm89-94l21-27 54-57h43l-71 76 76 101h-44l-57-78-21 17v61h-37v-250h37v122l-2 34h1zm436 94h-47l-115-187h-1l1 10c1 20 2 38 2 55v122h-35v-235h47l115 186h1c0-2-1-11-1-27-1-15-1-28-1-36v-123h35v235zm169 0l-8-25h-1c-9 11-17 18-26 22s-20 6-33 6c-17 0-31-5-41-14s-15-23-15-40c0-18 7-32 20-41 14-9 34-14 62-15l31-1v-9c0-11-3-20-8-25-5-6-14-8-25-8-9 0-18 1-26 4l-24 9-12-27c10-5 20-9 32-11 11-3 22-4 32-4 23 0 40 5 51 15 12 10 17 25 17 46v120h-27zm-56-26c14 0 25-4 33-12s12-18 12-32v-15l-23 1c-18 1-31 4-39 9s-12 13-12 24c0 8 2 14 7 18s12 7 21 7zm285 26h-38v-109c0-14-3-24-8-30-5-7-13-10-24-10-15 0-25 5-32 14s-10 25-10 47v88h-38v-177h30l5 23h2c5-8 12-15 21-20s20-7 31-7c27 0 45 9 54 28h3c5-9 13-16 22-21 10-5 20-7 33-7 21 0 37 5 46 16 10 11 15 27 15 49v116h-38v-109c0-14-3-24-8-30-5-7-13-10-24-10-15 0-25 5-32 14s-10 23-10 42v94zm242 3c-28 0-49-8-65-24s-23-38-23-67 7-52 22-68c14-17 34-25 60-25 23 0 42 7 55 21 14 14 20 34 20 59v20h-118c1 17 5 30 14 40 9 9 21 14 37 14 10 0 20-1 29-3s19-5 29-10v31c-9 4-19 8-28 9-9 2-20 3-32 3zm-7-155c-12 0-22 4-29 11-7 8-12 19-13 33h80c0-15-4-26-11-33-7-8-16-11-28-11zM596 2994l22 6c-5 18-13 32-25 42s-27 14-44 14c-18 0-33-4-44-11s-20-18-26-32-9-29-9-45c0-18 3-33 10-46s16-23 29-30c12-7 26-10 41-10 17 0 31 4 42 13 12 9 20 21 24 36l-22 5c-4-12-10-21-17-27s-17-8-28-8c-13 0-24 3-32 9-9 6-15 15-18 25-4 10-5 21-5 32 0 14 2 27 6 37 4 11 11 19 19 24 9 5 18 8 29 8 12 0 23-4 32-11s14-18 18-32zm31 59l65-168h25l69 168h-25l-19-51h-71l-18 51h-24zm48-69h57l-18-47c-5-14-9-26-12-35-2 11-5 22-9 32l-18 49zm127 69v-168h75c15 0 26 2 34 5s14 8 19 16 7 16 7 25c0 12-4 22-12 30s-20 13-36 16c6 3 10 6 13 8 7 6 13 13 18 22l29 46h-28l-22-35c-6-10-12-18-16-23s-8-9-11-11-7-4-10-4c-3-1-7-1-12-1h-26v75h-22zm22-94h48c10 0 18-1 24-3s10-5 13-10 4-10 4-15c0-8-3-15-9-20s-15-8-27-8h-53v56zm147 94v-168h58c13 0 23 1 30 2 10 2 18 6 25 12 9 8 16 17 20 29s7 25 7 40c0 13-1 24-4 34s-7 18-12 25c-5 6-10 12-15 15-6 4-12 7-20 8-8 2-17 3-27 3h-61zm22-20h36c11 0 20-1 26-3s11-5 15-9c5-5 9-12 12-21s4-20 4-33c0-18-3-31-9-41s-13-16-21-19c-6-2-16-3-29-3h-35v129zm148 20v-168h22v69h87v-69h22v168h-22v-79h-87v79h-22zm162-82c0-28 8-50 23-66s34-24 58-24c16 0 30 4 42 11s22 18 29 31 10 28 10 45-3 32-10 46c-7 13-17 24-29 31-13 7-26 10-41 10-16 0-30-4-43-12-12-8-22-18-28-31s-10-27-10-42zm23 0c0 20 5 36 16 48s25 18 41 18c17 0 31-6 41-18 11-12 16-28 16-50 0-14-2-26-7-36s-11-18-20-24-19-8-30-8c-16 0-29 5-41 16-11 11-17 29-17 54zm166 82v-168h22v149h83v20h-105zm132 0v-168h58c13 0 23 1 30 2 10 2 18 6 25 12 9 8 16 17 20 29s7 25 7 40c0 13-1 24-4 34s-7 18-11 25c-5 6-10 12-15 15-6 4-12 7-20 8-8 2-17 3-27 3h-61zm22-20h36c11 0 20-1 26-3s11-5 15-9c5-5 9-12 12-21s4-20 4-33c0-18-3-31-9-41s-13-16-21-19c-6-2-16-3-29-3h-35v129zm148 20v-168h122v20h-99v52h93v20h-93v57h103v20h-126zm157 0v-168h75c15 0 26 2 34 5s14 8 19 16 7 16 7 25c0 12-4 22-12 30s-20 13-36 16c6 3 10 6 13 8 7 6 13 13 18 22l29 46h-28l-22-35c-6-10-12-18-16-23s-8-9-11-11-7-4-10-4c-3-1-7-1-12-1h-26v75h-22zm22-94h48c10 0 18-1 24-3s10-5 13-10 4-10 4-15c0-8-3-15-9-20s-15-8-27-8h-53v56zM483 2182h41v-159h-40c-4 0-7-1-9-4-3-3-4-6-4-9 0-4 1-7 4-9 3-3 6-4 9-4h67v185h27v-56c0-4 1-7 4-9 3-3 6-4 9-4 4 0 7 1 9 4 3 3 4 6 4 9v69c0 4-1 7-4 9-3 3-6 4-9 4H483c-4 0-7-1-9-4-3-3-4-6-4-10s1-7 4-9c3-3 6-4 9-4zm306 27H667v-93c0-7 3-14 8-19s12-8 19-8h82v-65h-96c-4 0-7-1-10-4s-4-6-4-9c0-4 1-7 4-9 3-3 6-4 10-4h96c7 0 14 3 19 8s8 12 8 19v65c0 8-3 14-8 19s-12 8-19 8h-82v66h95c4 0 7 1 9 4 3 3 4 6 4 9 0 4-1 7-4 9-3 3-6 4-9 4zm211-185v50c0 12-4 21-11 28 7 8 11 17 11 27v53c0 7-3 14-8 19s-12 8-19 8h-95c-4 0-7-1-9-4-3-3-4-6-4-9 0-4 1-7 4-9 3-3 6-4 9-4h95v-53c0-4-1-7-4-10s-6-4-9-4h-54c-4 0-7-1-9-4-3-3-4-6-4-10s1-7 4-9c3-3 6-4 9-4h54c4 0 7-1 9-4 3-3 4-6 4-9v-52h-96c-4 0-7-1-9-4-3-3-4-6-4-9 0-4 1-7 4-9 3-3 6-4 10-4h96c7 0 14 3 19 8s8 12 8 19zm150 172v-56h-81v-129c0-4 1-7 4-10s6-4 10-4 7 1 9 4c3 3 4 6 4 10v102h54v-79c0-4 1-7 4-10s6-4 9-4c4 0 7 1 9 4 3 3 4 6 4 10v79c4 0 7 1 9 4 3 3 4 6 4 10s-1 7-4 10-6 4-9 4v56c0 4-1 7-4 9-3 3-6 4-9 4-4 0-7-1-9-4-3-3-4-6-4-9zm258-13h62v-66h-81v-119h95c4 0 7 1 9 4 3 3 4 6 4 9 0 4-1 7-4 9-3 3-6 4-9 4h-67v66h54c7 0 14 3 19 8s8 12 8 19v66c0 7-3 14-8 19s-12 8-19 8h-62c-6 0-11-1-18-4l-20-8c-5-2-8-6-8-13 0-4 1-7 4-9 2-3 5-4 9-4 3 0 6 1 9 2l18 7c2 1 4 2 7 2zm162-185h13c4 0 7 1 9 4 3 3 4 6 4 9 0 4-1 7-4 9-3 3-6 4-9 4v89h95c4 0 7 1 9 4 3 3 4 6 4 10v69c0 4-1 7-4 9-3 3-6 4-10 4h-108c-4 0-7-1-10-4s-4-6-4-9v-185c0-4 1-7 4-9 3-3 6-4 10-4zm13 143v43h81v-43h-81zm170-118v-11c0-4 1-7 4-9 3-3 6-4 9-4h122v83c0 4-2 8-5 11l-49 42v63c0 4-1 7-4 10s-6 4-9 4c-4 0-7-1-10-4s-4-6-4-9v-68c0-5 2-9 5-12l50-42v-50h-81c-2 8-6 11-13 11-4 0-7-1-9-4-3-3-4-6-4-9zm198 160v-66c0-7 3-14 8-19s12-8 19-8v-79c0-4 1-7 4-9 3-3 6-4 10-4h54c4 0 7 1 9 4 3 3 4 6 4 9v79c7 0 14 3 19 8s8 12 8 19v66c0 7-3 14-8 19s-12 8-19 8h-81c-8 0-14-3-19-8-5-6-8-12-8-19zm54-158v66h27v-66h-27zm-27 93v66h81v-66h-81zm392 92h-13c-4 0-7-1-9-4-3-3-4-6-4-9 0-4 1-7 4-9 3-3 6-4 9-4v-88h-95c-4 0-7-1-9-4-3-3-4-6-4-9v-70c0-4 1-7 4-9 3-3 6-4 9-4h108c4 0 7 1 9 4 3 3 4 6 4 9v185c0 4-1 7-4 9-3 3-6 4-9 4zm-13-142v-42h-81v42h81zm89 116v-66c0-7 3-14 8-19s12-8 19-8v-79c0-4 1-7 4-9 3-3 6-4 10-4h54c4 0 7 1 9 4 3 3 4 6 4 9v79c7 0 14 3 19 8s8 12 8 19v66c0 7-3 14-8 19s-12 8-19 8h-81c-8 0-14-3-19-8-5-6-8-12-8-19zm54-158v66h27v-66h-27zm-27 93v66h81v-66h-81zm170-95v-11c0-4 1-7 4-9 3-3 6-4 9-4h122v83c0 4-2 8-5 11l-49 42v63c0 4-1 7-4 10s-6 4-9 4c-4 0-7-1-10-4s-4-6-4-9v-68c0-5 2-9 5-12l50-42v-50h-81c-2 8-6 11-13 11-4 0-7-1-9-4-3-3-4-6-4-9zm212-25h13c4 0 7 1 9 4 3 3 4 6 4 9 0 4-1 7-4 9-3 3-6 4-9 4v89h95c4 0 7 1 9 4 3 3 4 6 4 10v69c0 4-1 7-4 9-3 3-6 4-10 4h-108c-4 0-7-1-10-4s-4-6-4-9v-185c0-4 1-7 4-9 3-3 6-4 10-4zm13 143v43h81v-43h-81zm319 43h62v-66h-81v-119h95c4 0 7 1 9 4 3 3 4 6 4 9 0 4-1 7-4 9-3 3-6 4-9 4h-67v66h54c7 0 14 3 19 8s8 12 8 19v66c0 7-3 14-8 19s-12 8-19 8h-62c-6 0-11-1-18-4l-20-8c-5-2-8-6-8-13 0-4 1-7 4-9 2-3 5-4 9-4 3 0 6 1 9 2l18 7c2 1 4 2 7 2zm236 13v-56h-81v-129c0-4 1-7 4-10s6-4 10-4 7 1 9 4c3 3 4 6 4 10v102h54v-79c0-4 1-7 4-10s6-4 9-4c4 0 7 1 9 4 3 3 4 6 4 10v79c4 0 7 1 9 4 3 3 4 6 4 10s-1 7-4 10-6 4-9 4v56c0 4-1 7-4 9-3 3-6 4-9 4-4 0-7-1-9-4-3-3-4-6-4-9zm245-172v50c0 12-4 21-11 28 7 8 11 17 11 27v53c0 7-3 14-8 19s-12 8-19 8h-95c-4 0-7-1-9-4-3-3-4-6-4-9 0-4 1-7 4-9 3-3 6-4 9-4h95v-53c0-4-1-7-4-10s-6-4-9-4h-54c-4 0-7-1-9-4-3-3-4-6-4-10s1-7 4-9c3-3 6-4 9-4h54c4 0 7-1 9-4 3-3 4-6 4-9v-52h-96c-4 0-7-1-9-4-3-3-4-6-4-9 0-4 1-7 4-9 3-3 6-4 10-4h96c7 0 14 3 19 8s8 12 8 19zm184 185h-122v-93c0-7 3-14 8-19s12-8 19-8h82v-65h-96c-4 0-7-1-10-4s-4-6-4-9c0-4 1-7 4-9 3-3 6-4 10-4h96c7 0 14 3 19 8s8 12 8 19v65c0 8-3 14-8 19s-12 8-19 8h-82v66h95c4 0 7 1 9 4 3 3 4 6 4 9 0 4-1 7-4 9-3 3-6 4-9 4zM532 2459h-19v-76c0-9 0-16 1-21-1 1-3 3-5 4-2 2-8 6-18 15l-9-12 34-27h16v117zm118 0h-80v-14l30-30c9-9 15-16 18-19 3-4 5-7 6-11 1-3 2-7 2-11 0-5-2-9-5-13-3-3-8-5-13-5s-9 1-13 2c-4 2-9 5-15 9l-10-12c7-6 13-9 19-12 6-2 13-3 20-3 11 0 20 3 26 9 7 6 10 13 10 23 0 5-1 10-3 15s-5 10-9 15-10 12-20 20l-20 20v1h56v17zm89-90c0 7-2 14-6 19s-10 8-18 10v1c9 1 16 4 21 9s7 11 7 19c0 11-4 20-12 26s-19 9-34 9c-13 0-24-2-33-6v-17c5 2 10 4 16 6 6 1 11 2 16 2 9 0 16-2 20-5s7-9 7-16c0-6-2-11-7-14s-13-4-23-4h-10v-15h10c19 0 28-6 28-19 0-5-2-9-5-12s-8-4-14-4c-4 0-9 1-13 2s-9 4-15 7l-9-13c11-8 23-12 37-12 12 0 21 3 28 8s10 12 10 21zm102 65h-16v26h-18v-26h-54v-14l54-78h18v76h16v16zm-34-16v-29c0-10 0-19 1-26h-1c-2 4-4 8-7 13l-29 42h36zM1772 2644h36v-139h-35c-3 0-6-1-8-3s-3-5-3-8 1-6 3-8 5-3 8-3h59v163h24v-49c0-3 1-6 3-8s5-3 8-3 6 1 8 3 3 5 3 8v61c0 3-1 6-3 8s-5 3-8 3h-95c-3 0-6-1-8-4-2-2-3-5-3-8s1-6 3-8 5-3 8-3zm269 24h-107v-82c0-7 2-12 7-17s10-7 17-7h72v-57h-84c-3 0-6-1-8-3s-3-5-3-8 1-6 3-8 5-3 8-3h84c7 0 12 2 17 7s7 10 7 17v57c0 7-2 12-7 17s-10 7-17 7h-72v58h84c3 0 6 1 8 3s4 5 4 8-1 6-4 8c-2 2-5 3-8 3zm185-166l-96 162c-2 2-4 4-7 4s-6-1-9-3-4-5-4-8 1-6 3-9l96-162c2-3 4-4 7-4s6 1 8 3c3 2 4 5 4 8s-1 6-3 10zm66 142h36v-139h-35c-3 0-6-1-8-3s-3-5-3-8 1-6 3-8 5-3 8-3h59v163h24v-49c0-3 1-6 3-8s5-3 8-3 6 1 8 3 3 5 3 8v61c0 3-1 6-3 8s-5 3-8 3h-95c-3 0-6-1-8-4-2-2-3-5-3-8s1-6 3-8 5-3 8-3zm162-141v-10c0-3 1-6 3-8s5-3 8-3h107v73c0 4-1 7-4 10l-43 37v55c0 3-1 6-3 9-2 2-5 4-8 4s-6-1-8-4c-2-2-4-5-4-8v-60c0-5 1-8 4-10l44-37v-44h-71c-2 7-6 10-12 10-3 0-6-1-8-3s-3-5-3-8z"/><rect width="641" height="483" x="469" y="1214" fill="#727271" rx="99" ry="99"/><rect width="622" height="469" x="479" y="1221" fill="url(#c)" rx="96" ry="96"/><path fill="#727271" d="M479 1502h622v12H479zM479 1399h622v12H479zM479 1300h622v12H479zM479 1598h622v12H479z"/><path fill="#727271" d="M783 1221h14v476h-14z"/></svg>