<svg xmlns="http://www.w3.org/2000/svg" data-name="Layer 1" viewBox="0 0 512 512"><rect width="465" height="286" x="39.5" y="57.5" fill="#1067ae" rx="30"/><path fill="#0a56a4" d="M474.5,57.5h-30a30,30,0,0,1,30,30v226a30,30,0,0,1-30,30h30a30,30,0,0,0,30-30V87.5A30,30,0,0,0,474.5,57.5Z"/><rect width="465" height="64" x="39.5" y="109.5" fill="#57565c"/><rect width="30" height="64" x="474.5" y="109.5" fill="#3c3b41"/><rect width="465" height="286" x="7.5" y="153.5" fill="#227fc0" rx="30"/><path fill="#2370b5" d="M442.5,153.5h-30a30,30,0,0,1,30,30v226a30,30,0,0,1-30,30h30a30,30,0,0,0,30-30v-226A30,30,0,0,0,442.5,153.5Z"/><rect width="131" height="32" x="293.5" y="198.5" fill="#fff" rx="10"/><path fill="#e1e1e3" d="M414.5,198.5h-30a10,10,0,0,1,10,10v12a10,10,0,0,1-10,10h30a10,10,0,0,0,10-10v-12A10,10,0,0,0,414.5,198.5Z"/><rect width="70" height="51" x="55.5" y="198.5" fill="#f8be32" rx="10"/><path fill="#fed030" d="M115.5,198.5H94.13a10,10,0,0,1,10,10v31a10,10,0,0,1-10,10H115.5a10,10,0,0,0,10-10v-31A10,10,0,0,0,115.5,198.5Z"/><path fill="#fff" d="M212.08 372H55.51a7.5 7.5 0 1 1 0-15H212.08a7.5 7.5 0 1 1 0 15zM141.5 402H55.85a7.5 7.5 0 0 1 0-15H141.5a7.5 7.5 0 0 1 0 15z"/><circle cx="402" cy="381" r="22.5" fill="#f9a242"/><path fill="#f69531" d="M402,358.5a22.46,22.46,0,0,0-7.5,1.29,22.5,22.5,0,0,1,0,42.42A22.5,22.5,0,1,0,402,358.5Z"/><circle cx="372" cy="381" r="22.5" fill="#f8be32"/><path fill="#fed030" d="M372,358.5a22.46,22.46,0,0,0-7.5,1.29,22.5,22.5,0,0,1,0,42.42A22.5,22.5,0,1,0,372,358.5Z"/><path fill="#fff" d="M120.85 320h-65a7.5 7.5 0 0 1 0-15h65a7.5 7.5 0 1 1 0 15zM222.06 320h-65a7.5 7.5 0 0 1 0-15h65a7.5 7.5 0 0 1 0 15zM323.28 320h-65a7.5 7.5 0 0 1 0-15h65a7.5 7.5 0 0 1 0 15zM424.5 320h-65a7.5 7.5 0 0 1 0-15h65a7.5 7.5 0 0 1 0 15z"/></svg>