<svg xmlns="http://www.w3.org/2000/svg" enable-background="new 0 0 512 512" viewBox="0 0 512 512"><path fill="#dadadc" d="M42.3,8.7h437c16.6,0,30,13.4,30,30v326.9c0,16.6-13.4,30-30,30h-437c-16.6,0-30-13.4-30-30V38.7
	C12.3,22.1,25.7,8.7,42.3,8.7z"/><path fill="#c8c5cc" d="M474.5,7.5h-30c16.6,0,30,13.4,30,30v326.9c0,16.6-13.4,30-30,30h30c16.6,0,30-13.4,30-30V37.5
	C504.5,20.9,491.1,7.5,474.5,7.5z"/><path fill="#fff" d="M470.4,46.6v274.5c0,2.8-2.2,5-5,5H46.6c-2.8,0-5-2.2-5-5V46.6c0-2.8,2.2-5,5-5h418.8
	C468.1,41.6,470.4,43.9,470.4,46.6z"/><rect width="103" height="61.1" x="204.5" y="394.4" fill="#c8c5cc"/><rect width="30" height="61.1" x="277.5" y="394.4" fill="#aeadb3"/><path fill="#dadadc" d="M362,504.5H150l12.4-39.6c2.9-5.8,8.8-9.4,15.3-9.4h156.8c6.5,0,12.4,3.6,15.3,9.4L362,504.5z"/><path fill="#c8c5cc" d="M349.7,464.9c-2.9-5.8-8.8-9.4-15.3-9.4h-30c6.5,0,12.4,3.6,15.3,9.4l12.3,39.6h30L349.7,464.9z"/><circle cx="256" cy="362" r="7.5" fill="#fff"/><path fill="#f8be32" d="M311.4,122.8h107c3.9,0,7,3.1,7,7v31c0,3.9-3.1,7-7,7h-107c-3.9,0-7-3.1-7-7v-31
	C304.4,125.9,307.5,122.8,311.4,122.8z"/><path fill="#fed030" d="M418.4,122.8h-30c3.9,0,7,3.1,7,7v31c0,3.9-3.1,7-7,7h30c3.9,0,7-3.1,7-7v-31
	C425.4,125.9,422.2,122.8,418.4,122.8z"/><path fill="#19ac66" d="M311.4,197.8h107c3.9,0,7,3.1,7,7v31c0,3.9-3.1,7-7,7h-107c-3.9,0-7-3.1-7-7v-31
	C304.4,200.9,307.5,197.8,311.4,197.8z"/><path fill="#17a454" d="M418.4,197.8h-30c3.9,0,7,3.1,7,7v31c0,3.9-3.1,7-7,7h30c3.9,0,7-3.1,7-7v-31
	C425.4,200.9,422.2,197.8,418.4,197.8z"/><path fill="#787681" d="M425.4,280.3h-121c-4.1,0-7.5-3.4-7.5-7.5s3.4-7.5,7.5-7.5h121c4.1,0,7.5,3.4,7.5,7.5S429.5,280.3,425.4,280.3
	L425.4,280.3z"/><polygon fill="#8b8893" points="86.6 145 171.2 77.8 256.1 145 171.4 160"/><polygon fill="#787681" points="171.2 77.8 163.7 83.7 241.1 145 256.1 145"/><rect width="30" height="99.6" x="208.9" y="160.4" fill="#dadadc"/><rect width="15" height="99.6" x="223.9" y="160.4" fill="#c8c5cc"/><rect width="30" height="99.6" x="103.8" y="160.4" fill="#dadadc"/><rect width="15" height="99.6" x="118.8" y="160.4" fill="#c8c5cc"/><circle cx="171.2" cy="118.8" r="8.5" fill="#fff"/><path fill="#787681" d="M256.1,290H86.6v-15c0-8.3,6.7-15,15-15h139.5c8.3,0,15,6.7,15,15l0,0V290z"/><path fill="#57565c" d="M241.1,260h-15c8.3,0,15,6.7,15,15v15h15v-15C256.1,266.7,249.4,260,241.1,260L241.1,260z"/><path fill="#787681" d="M252.1,175H90.6c-2.2,0-4-1.8-4-4v-26h169.5v26C256.1,173.2,254.3,175,252.1,175z"/><path fill="#57565c" d="M241.1,145v26c0,2.2-1.8,4-4,4h15c2.2,0,4-1.8,4-4l0,0v-26H241.1z"/></svg>